<?xml version="1.0" encoding="UTF-8" standalone="no"?>
<!-- Created with Inkscape (http://www.inkscape.org/) -->

<svg
   xmlns:dc="http://purl.org/dc/elements/1.1/"
   xmlns:cc="http://creativecommons.org/ns#"
   xmlns:rdf="http://www.w3.org/1999/02/22-rdf-syntax-ns#"
   xmlns:svg="http://www.w3.org/2000/svg"
   xmlns="http://www.w3.org/2000/svg"
   xmlns:sodipodi="http://sodipodi.sourceforge.net/DTD/sodipodi-0.dtd"
   xmlns:inkscape="http://www.inkscape.org/namespaces/inkscape"
   width="540"
   height="700"
   id="svg2406"
   sodipodi:version="0.32"
   inkscape:version="0.48.1 r9760"
   sodipodi:docname="pyramid.svg"
   inkscape:output_extension="org.inkscape.output.svg.inkscape"
   version="1.0"
   inkscape:export-filename="/home/tokoi/html/pyramid.png"
   inkscape:export-xdpi="90"
   inkscape:export-ydpi="90">
  <defs
     id="defs2408">
    <inkscape:perspective
       sodipodi:type="inkscape:persp3d"
       inkscape:vp_x="0 : 526.18109 : 1"
       inkscape:vp_y="0 : 1000 : 0"
       inkscape:vp_z="744.09448 : 526.18109 : 1"
       inkscape:persp3d-origin="372.04724 : 350.78739 : 1"
       id="perspective2414" />
    <filter
       inkscape:collect="always"
       id="filter3339"
       x="-0.043350559"
       width="1.0867012"
       y="-0.16649127"
       height="1.3329825">
      <feGaussianBlur
         inkscape:collect="always"
         stdDeviation="9.0355267"
         id="feGaussianBlur3341" />
    </filter>
  </defs>
  <sodipodi:namedview
     id="base"
     pagecolor="#ffffff"
     bordercolor="#666666"
     borderopacity="1.0"
     gridtolerance="10000"
     guidetolerance="10"
     objecttolerance="10"
     inkscape:pageopacity="0.0"
     inkscape:pageshadow="2"
     inkscape:zoom="0.78439469"
     inkscape:cx="50.495821"
     inkscape:cy="318.77594"
     inkscape:document-units="px"
     inkscape:current-layer="layer1"
     showgrid="false"
     inkscape:snap-global="true"
     showguides="true"
     inkscape:guide-bbox="true"
     inkscape:window-width="1280"
     inkscape:window-height="948"
     inkscape:window-x="0"
     inkscape:window-y="25"
     inkscape:object-paths="true"
     inkscape:object-nodes="true"
     inkscape:snap-bbox="false"
     inkscape:window-maximized="0">
    <inkscape:grid
       type="xygrid"
       id="grid2416"
       visible="true"
       enabled="true" />
  </sodipodi:namedview>
  <metadata
     id="metadata2411">
    <rdf:RDF>
      <cc:Work
         rdf:about="">
        <dc:format>image/svg+xml</dc:format>
        <dc:type
           rdf:resource="http://purl.org/dc/dcmitype/StillImage" />
        <dc:title></dc:title>
      </cc:Work>
    </rdf:RDF>
  </metadata>
  <g
     inkscape:label="Layer 1"
     inkscape:groupmode="layer"
     id="layer1"
     transform="translate(-124.58567,-298.1771)">
    <rect
       style="fill:#0e1211;fill-opacity:1;stroke:none;filter:url(#filter3339)"
       id="rect3289"
       width="500.23032"
       height="130.24866"
       x="152.74313"
       y="846.89893"
       rx="0"
       ry="0"
       transform="matrix(0.85595901,0,0,0.85595901,63.498099,90.328397)" />
    <g
       id="g3282"
       transform="matrix(0.85595901,0,0,0.85595901,78.569178,114.29525)">
      <path
         sodipodi:nodetypes="cccc"
         id="path2478"
         d="m 366.42726,300.6771 36.98257,225.1406 205.01093,35.4549 -241.9935,-260.5955 z"
         style="fill:#0044aa;fill-rule:evenodd;stroke:#00112b;stroke-width:5;stroke-linecap:butt;stroke-linejoin:bevel;stroke-miterlimit:4;stroke-opacity:1;stroke-dasharray:none"
         inkscape:connector-curvature="0" />
      <path
         sodipodi:nodetypes="cccc"
         id="path2476"
         d="M 366.42726,300.6771 145.76641,572.06031 403.40983,525.8177 366.42726,300.6771 z"
         style="fill:#0055d4;fill-rule:evenodd;stroke:#00112b;stroke-width:5;stroke-linecap:butt;stroke-linejoin:bevel;stroke-miterlimit:4;stroke-opacity:1;stroke-dasharray:none"
         inkscape:connector-curvature="0" />
      <path
         id="path2508"
         d="M 403.40983,525.8177 145.76641,572.06031 326.42726,740.6771 608.42076,561.2726 403.40983,525.8177 z"
         style="fill:#0044aa;fill-opacity:1;fill-rule:evenodd;stroke:#00112b;stroke-width:5;stroke-linecap:butt;stroke-linejoin:bevel;stroke-miterlimit:4;stroke-opacity:1;stroke-dasharray:none"
         inkscape:connector-curvature="0" />
      <path
         sodipodi:nodetypes="cccc"
         id="path2474"
         d="m 366.42726,300.6771 -40,440 281.9935,-179.4045 -241.9935,-260.5955 z"
         style="opacity:0.6;fill:#aaccff;fill-rule:evenodd;stroke:#00112b;stroke-width:5;stroke-linecap:butt;stroke-linejoin:bevel;stroke-miterlimit:4;stroke-opacity:1;stroke-dasharray:none"
         inkscape:connector-curvature="0" />
      <path
         sodipodi:nodetypes="cccc"
         id="path2472"
         d="m 366.42726,300.6771 -220.66085,271.38321 180.66085,168.61679 40,-440 z"
         style="opacity:0.6;fill:#5599ff;fill-rule:evenodd;stroke:#00112b;stroke-width:5;stroke-linecap:butt;stroke-linejoin:bevel;stroke-miterlimit:4;stroke-opacity:1;stroke-dasharray:none"
         inkscape:connector-curvature="0" />
    </g>
    <rect
       style="fill:#6f918a;fill-opacity:1;stroke:none"
       id="rect3280"
       width="428.17664"
       height="111.48751"
       x="187.25749"
       y="808.25677"
       rx="0"
       ry="0" />
    <g
       transform="matrix(0.85595901,0,0,0.85595901,80.617279,102.31182)"
       style="font-size:40px;font-style:oblique;font-variant:normal;font-weight:bold;font-stretch:normal;text-align:center;line-height:125%;writing-mode:lr-tb;text-anchor:middle;fill:#ffcc00;fill-opacity:1;stroke:#000000;stroke-width:1px;stroke-linecap:butt;stroke-linejoin:miter;stroke-opacity:1;font-family:DejaVu Sans;-inkscape-font-specification:DejaVu Sans Bold Oblique"
       id="flowRoot3343">
      <path
         d="m 280.75391,864.53794 c -1.48439,10e-6 -2.70184,0.61199 -3.65235,1.83593 -0.95053,1.22397 -1.42579,2.79949 -1.42578,4.72657 -10e-6,1.15886 0.29296,2.0638 0.87891,2.71484 0.58592,0.63802 1.39973,0.95703 2.4414,0.95703 1.47134,0 2.68228,-0.59895 3.63282,-1.79687 0.96352,-1.21094 1.44529,-2.73437 1.44531,-4.57032 -2e-5,-1.24999 -0.28648,-2.20702 -0.85938,-2.87109 -0.57293,-0.66405 -1.39324,-0.99608 -2.46093,-0.99609 m 11.93359,-14.00391 -1.05469,5.39062 c -1.11981,-0.57289 -2.20705,-1.00258 -3.26172,-1.28906 -1.0547,-0.28643 -2.10939,-0.42966 -3.16406,-0.42969 -2.42189,3e-5 -4.38152,0.65107 -5.87891,1.95313 -1.4974,1.3021 -2.40886,3.13153 -2.73437,5.48828 1.01561,-0.66404 2.05728,-1.15233 3.125,-1.46484 1.08071,-0.32551 2.22655,-0.48827 3.4375,-0.48828 2.39581,10e-6 4.35545,0.70965 5.87891,2.1289 1.52341,1.41929 2.28513,3.22918 2.28515,5.42969 -2e-5,3.59376 -1.17841,6.54297 -3.53515,8.84766 -2.34377,2.29166 -5.3646,3.43749 -9.0625,3.4375 -3.32033,-1e-5 -5.89194,-0.9375 -7.71485,-2.8125 -1.82292,-1.88802 -2.73437,-4.55078 -2.73437,-7.98829 0,-2.65623 0.40364,-5.18878 1.21093,-7.59765 0.80729,-2.42186 1.9401,-4.50519 3.39844,-6.25 1.56249,-1.86196 3.40494,-3.26169 5.52735,-4.19922 2.1354,-0.93747 4.53123,-1.40622 7.1875,-1.40625 1.22393,3e-5 2.41534,0.1042 3.57421,0.3125 1.15884,0.20836 2.33071,0.52086 3.51563,0.9375"
         style="line-height:125%;stroke:#000000;font-family:DejaVu Sans;-inkscape-font-specification:DejaVu Sans Bold Oblique"
         id="path3113" />
      <path
         d="m 306.04687,874.38169 c 1.0026,0 1.88801,-0.29948 2.65625,-0.89844 0.78124,-0.59895 1.43228,-1.47786 1.95313,-2.63672 0.36457,-0.8203 0.6966,-1.75129 0.99609,-2.79297 0.29947,-1.05468 0.57941,-2.29816 0.83985,-3.73047 0.22133,-1.15884 0.3906,-2.22654 0.50781,-3.20312 0.11717,-0.97655 0.17576,-1.80988 0.17578,-2.5 -2e-5,-1.45832 -0.26043,-2.52602 -0.78125,-3.20313 -0.52085,-0.69008 -1.32814,-1.03513 -2.42187,-1.03515 -1.01564,2e-5 -1.90757,0.29299 -2.67579,0.8789 -0.76824,0.57294 -1.40626,1.45185 -1.91406,2.63672 -0.39063,0.84637 -0.74871,1.80992 -1.07422,2.89063 -0.31251,1.08074 -0.58594,2.25913 -0.82031,3.53515 -0.22136,1.17189 -0.39063,2.25913 -0.50781,3.26172 -0.1172,1.00261 -0.17579,1.84897 -0.17578,2.53906 -10e-6,1.44532 0.26692,2.51954 0.80078,3.22266 0.53384,0.69011 1.34764,1.03516 2.4414,1.03516 M 320.5,859.73325 c -3e-5,2.59116 -0.3581,5.11069 -1.07422,7.55859 -0.71617,2.44793 -1.71877,4.59636 -3.00781,6.44531 -1.31513,1.90105 -2.90367,3.33985 -4.76563,4.31641 -1.86199,0.96354 -3.93881,1.44531 -6.23047,1.44531 -3.19011,0 -5.63802,-0.90494 -7.34375,-2.71484 -1.69271,-1.80989 -2.53906,-4.41406 -2.53906,-7.8125 0,-2.55207 0.35156,-5.05207 1.05469,-7.5 0.71614,-2.46092 1.71224,-4.60284 2.98828,-6.42578 1.34114,-1.91404 2.93619,-3.35935 4.78516,-4.33594 1.84894,-0.97653 3.93227,-1.46481 6.25,-1.46484 3.16404,3e-5 5.59893,0.91148 7.30468,2.73437 1.71873,1.80992 2.5781,4.39456 2.57813,7.75391"
         style="line-height:125%;stroke:#000000;font-family:DejaVu Sans;-inkscape-font-specification:DejaVu Sans Bold Oblique"
         id="path3115" />
      <path
         d="m 324.66016,873.73715 6.64062,0 3.65234,-18.84765 -7.08984,1.40625 0.99609,-5.11719 7.05079,-1.40625 7.14843,0 -4.6289,23.96484 6.60156,0 -0.99609,5.19532 -20.41016,0 1.03516,-5.19532"
         style="line-height:125%;stroke:#000000;font-family:DejaVu Sans;-inkscape-font-specification:DejaVu Sans Bold Oblique"
         id="path3117" />
      <path
         d="m 359.60156,873.40512 12.67578,0 -1.07422,5.52735 -21.17187,0 1.09375,-5.56641 12.40234,-9.35547 c 1.35416,-1.04165 2.3828,-2.09634 3.08594,-3.16406 0.71613,-1.06769 1.0742,-2.10285 1.07422,-3.10547 -2e-5,-1.06769 -0.3646,-1.89451 -1.09375,-2.48047 -0.72918,-0.58591 -1.75132,-0.87888 -3.06641,-0.8789 -1.23699,2e-5 -2.61719,0.24742 -4.14062,0.74218 -1.52345,0.4818 -3.2422,1.23049 -5.15625,2.2461 l 1.25,-6.19141 c 1.77082,-0.65101 3.5091,-1.13278 5.21484,-1.44531 1.70572,-0.32549 3.39192,-0.48825 5.0586,-0.48828 2.96873,3e-5 5.30596,0.64456 7.01171,1.93359 1.70571,1.27607 2.55857,3.02086 2.5586,5.23438 -3e-5,1.90106 -0.52086,3.63283 -1.5625,5.19531 -1.04169,1.56251 -3.33336,3.67189 -6.875,6.32812 l -7.28516,5.46875"
         style="line-height:125%;stroke:#000000;font-family:DejaVu Sans;-inkscape-font-specification:DejaVu Sans Bold Oblique"
         id="path3119" />
      <path
         d="m 396.41797,863.20981 c 1.47133,0.33856 2.61716,1.02215 3.4375,2.05078 0.82029,1.02866 1.23044,2.29168 1.23047,3.78906 -3e-5,3.22918 -1.28258,5.78126 -3.84766,7.65625 -2.5521,1.86198 -6.06772,2.79297 -10.54687,2.79297 -1.69272,0 -3.3073,-0.1237 -4.84375,-0.37109 -1.52344,-0.23438 -2.96224,-0.59245 -4.31641,-1.07422 l 1.11328,-5.80078 c 1.15885,0.67709 2.42187,1.20443 3.78906,1.58203 1.36718,0.36459 2.73437,0.54688 4.10157,0.54688 2.20051,0 3.93879,-0.41016 5.21484,-1.23047 1.28905,-0.83333 1.93358,-1.94661 1.93359,-3.33985 -10e-6,-1.15884 -0.48829,-2.02473 -1.46484,-2.59765 -0.97658,-0.58593 -2.44793,-0.8789 -4.41406,-0.87891 l -2.98828,0 0.95703,-4.84375 3.16406,0 c 2.04426,2e-5 3.65884,-0.37108 4.84375,-1.11328 1.1979,-0.74217 1.79686,-1.74477 1.79687,-3.00781 -1e-5,-0.98956 -0.41668,-1.74477 -1.25,-2.26563 -0.82032,-0.52081 -2.01824,-0.78122 -3.59375,-0.78125 -1.10678,3e-5 -2.3112,0.14326 -3.61328,0.42969 -1.30209,0.28648 -2.65625,0.70315 -4.0625,1.25 l 1.07422,-5.50781 c 1.53645,-0.41664 3.04687,-0.72914 4.53125,-0.9375 1.49739,-0.20831 2.97525,-0.31247 4.4336,-0.3125 3.29425,3e-5 5.7682,0.5469 7.42187,1.64062 1.66664,1.09378 2.49998,2.72138 2.5,4.88281 -2e-5,1.94013 -0.57945,3.56122 -1.73828,4.86329 -1.14586,1.28907 -2.76695,2.14845 -4.86328,2.57812"
         style="line-height:125%;stroke:#000000;font-family:DejaVu Sans;-inkscape-font-specification:DejaVu Sans Bold Oblique"
         id="path3121" />
      <path
         d="m 421.82812,856.17856 -10.37109,11.99219 8.00781,0 2.36328,-11.99219 m -0.19531,-6.40625 8.55469,0 -3.61328,18.39844 4.16015,0 -1.03515,5.44922 -4.16016,0 -1.03515,5.3125 -7.12891,0 1.05469,-5.3125 -13.125,0 1.26953,-6.44532 15.05859,-17.40234"
         style="line-height:125%;stroke:#000000;font-family:DejaVu Sans;-inkscape-font-specification:DejaVu Sans Bold Oblique"
         id="path3123" />
      <path
         d="m 440.22656,849.77231 18.69141,0 -1.07422,5.52734 -12.69531,0 -0.87891,4.51172 c 0.57291,-0.15623 1.16535,-0.27342 1.77734,-0.35156 0.62499,-0.0911 1.24999,-0.1367 1.875,-0.13672 2.98176,2e-5 5.31248,0.68361 6.99219,2.05078 1.67967,1.35419 2.51951,3.23569 2.51953,5.64453 -2e-5,3.82814 -1.29559,6.8685 -3.88672,9.1211 -2.59116,2.23958 -6.10678,3.35937 -10.54687,3.35937 -1.62761,0 -3.20964,-0.16276 -4.74609,-0.48828 -1.53647,-0.3125 -3.0599,-0.79427 -4.57032,-1.44531 l 1.15235,-5.91797 c 1.44531,0.93751 2.84505,1.62761 4.19922,2.07031 1.36718,0.44272 2.75389,0.66407 4.16015,0.66407 2.05728,0 3.70442,-0.53385 4.94141,-1.60157 1.23696,-1.08072 1.85545,-2.49348 1.85547,-4.23828 -2e-5,-1.24999 -0.46877,-2.23957 -1.40625,-2.96875 -0.93752,-0.74217 -2.21356,-1.11327 -3.82813,-1.11328 -1.09376,1e-5 -2.27865,0.14324 -3.55469,0.42969 -1.26302,0.27345 -2.64974,0.70314 -4.16015,1.28906 l 3.18359,-16.40625"
         style="line-height:125%;stroke:#000000;font-family:DejaVu Sans;-inkscape-font-specification:DejaVu Sans Bold Oblique"
         id="path3125" />
      <path
         d="m 475.44141,864.53794 c -1.48439,10e-6 -2.70184,0.61199 -3.65235,1.83593 -0.95053,1.22397 -1.42579,2.79949 -1.42578,4.72657 -10e-6,1.15886 0.29296,2.0638 0.87891,2.71484 0.58592,0.63802 1.39973,0.95703 2.4414,0.95703 1.47134,0 2.68228,-0.59895 3.63282,-1.79687 0.96352,-1.21094 1.44529,-2.73437 1.44531,-4.57032 -2e-5,-1.24999 -0.28648,-2.20702 -0.85938,-2.87109 -0.57293,-0.66405 -1.39324,-0.99608 -2.46093,-0.99609 m 11.93359,-14.00391 -1.05469,5.39062 c -1.11981,-0.57289 -2.20705,-1.00258 -3.26172,-1.28906 -1.0547,-0.28643 -2.10939,-0.42966 -3.16406,-0.42969 -2.42189,3e-5 -4.38152,0.65107 -5.87891,1.95313 -1.4974,1.3021 -2.40886,3.13153 -2.73437,5.48828 1.01561,-0.66404 2.05728,-1.15233 3.125,-1.46484 1.08071,-0.32551 2.22655,-0.48827 3.4375,-0.48828 2.39581,10e-6 4.35545,0.70965 5.87891,2.1289 1.52341,1.41929 2.28513,3.22918 2.28515,5.42969 -2e-5,3.59376 -1.17841,6.54297 -3.53515,8.84766 -2.34377,2.29166 -5.3646,3.43749 -9.0625,3.4375 -3.32033,-1e-5 -5.89194,-0.9375 -7.71485,-2.8125 -1.82292,-1.88802 -2.73437,-4.55078 -2.73437,-7.98829 0,-2.65623 0.40364,-5.18878 1.21093,-7.59765 0.80729,-2.42186 1.9401,-4.50519 3.39844,-6.25 1.56249,-1.86196 3.40494,-3.26169 5.52735,-4.19922 2.1354,-0.93747 4.53123,-1.40622 7.1875,-1.40625 1.22393,3e-5 2.41534,0.1042 3.57421,0.3125 1.15884,0.20836 2.33071,0.52086 3.51563,0.9375"
         style="line-height:125%;stroke:#000000;font-family:DejaVu Sans;-inkscape-font-specification:DejaVu Sans Bold Oblique"
         id="path3127" />
      <path
         d="m 166.78906,899.77231 7.51953,0 -2.05078,10.48828 12.40235,-10.48828 9.08203,0 -16.71875,14.16016 12.59765,15 -8.82812,0 -9.80469,-12.16797 -2.36328,12.16797 -7.51953,0 5.68359,-29.16016"
         style="line-height:125%;stroke:#000000;font-family:DejaVu Sans;-inkscape-font-specification:DejaVu Sans Bold Oblique"
         id="path3129" />
      <path
         d="m 214.25,918.81528 -0.23438,1.11328 -16.36718,0 c -1e-5,0.0781 -0.007,0.19532 -0.0195,0.35156 -0.013,0.14324 -0.0195,0.25392 -0.0195,0.33203 0,1.41928 0.42317,2.48048 1.26954,3.1836 0.85936,0.70313 2.14191,1.05469 3.84765,1.05469 1.47134,0 3.02082,-0.22135 4.64844,-0.66407 1.64061,-0.4427 3.35935,-1.10025 5.15625,-1.97265 l -1.07422,5.42968 c -1.70575,0.625 -3.40497,1.08724 -5.09766,1.38672 -1.6797,0.3125 -3.39194,0.46875 -5.13671,0.46875 -3.41147,0 -6.04819,-0.78776 -7.91016,-2.36328 -1.84896,-1.57552 -2.77344,-3.80208 -2.77344,-6.67969 0,-1.66665 0.29297,-3.28123 0.87891,-4.84375 0.59895,-1.5755 1.46484,-3.0143 2.59765,-4.3164 1.34114,-1.56248 2.94271,-2.74738 4.80469,-3.55469 1.87499,-0.80727 3.95181,-1.21091 6.23047,-1.21094 2.95571,3e-5 5.29946,0.78778 7.03125,2.36328 1.74477,1.57554 2.61716,3.69794 2.61719,6.36719 -3e-5,0.52085 -0.0391,1.07423 -0.11719,1.66016 -0.0651,0.57293 -0.17581,1.20444 -0.33203,1.89453 m -6.60156,-3.20313 c 0.039,-0.16925 0.0651,-0.33852 0.0781,-0.50781 0.026,-0.18228 0.0391,-0.35806 0.0391,-0.52734 -1e-5,-1.04165 -0.31251,-1.86848 -0.9375,-2.48047 -0.62501,-0.61196 -1.47137,-0.91795 -2.53906,-0.91797 -1.3672,2e-5 -2.53256,0.37762 -3.49609,1.13281 -0.95053,0.74221 -1.6797,1.84247 -2.1875,3.30078 l 9.04297,0"
         style="line-height:125%;stroke:#000000;font-family:DejaVu Sans;-inkscape-font-specification:DejaVu Sans Bold Oblique"
         id="path3131" />
      <path
         d="m 242.00391,915.61215 -2.59766,13.32032 -7.01172,0 2.20703,-11.40625 c 0.15623,-0.74218 0.27342,-1.36718 0.35156,-1.875 0.0911,-0.52082 0.1367,-0.93098 0.13672,-1.23047 -2e-5,-0.83332 -0.23439,-1.47785 -0.70312,-1.9336 -0.45575,-0.45571 -1.10679,-0.68357 -1.95313,-0.68359 -1.44532,2e-5 -2.68881,0.56642 -3.73047,1.69922 -1.02865,1.1198 -1.7448,2.67579 -2.14843,4.66797 l -2.10938,10.76172 -7.01172,0 4.25782,-21.875 7.03125,0 -0.64454,3.20312 c 1.28905,-1.263 2.58463,-2.2005 3.88672,-2.8125 1.30207,-0.61196 2.66275,-0.91794 4.08203,-0.91797 2.01821,3e-5 3.5742,0.52737 4.66797,1.58203 1.09373,1.05471 1.6406,2.53908 1.64063,4.45313 -3e-5,0.41668 -0.0326,0.87892 -0.0977,1.38672 -0.0521,0.50782 -0.13674,1.06121 -0.2539,1.66015"
         style="line-height:125%;stroke:#000000;font-family:DejaVu Sans;-inkscape-font-specification:DejaVu Sans Bold Oblique"
         id="path3133" />
      <path
         d="m 259.11328,900.84653 -1.19141,6.21094 7.14844,0 -0.99609,5 -7.14844,0 -1.79687,9.25781 c -0.0521,0.20834 -0.0912,0.38412 -0.11719,0.52734 -0.013,0.14324 -0.0195,0.27996 -0.0195,0.41016 -1e-5,0.59896 0.1953,1.02865 0.58593,1.28906 0.40364,0.26042 1.07421,0.39063 2.01172,0.39063 l 3.61328,0 -0.99609,5 -5.87891,0 c -2.10938,0 -3.71745,-0.44271 -4.82421,-1.32813 -1.10678,-0.88541 -1.66016,-2.16145 -1.66016,-3.82812 0,-0.36458 0.0195,-0.75521 0.0586,-1.17188 0.0391,-0.41666 0.0977,-0.83984 0.17578,-1.26953 l 1.79688,-9.27734 -3.4375,0 0.95703,-5 3.47656,0 1.21094,-6.21094 7.03125,0"
         style="line-height:125%;stroke:#000000;font-family:DejaVu Sans;-inkscape-font-specification:DejaVu Sans Bold Oblique"
         id="path3135" />
      <path
         d="m 277.02344,919.08872 c -1.74481,1e-5 -3.06642,0.27344 -3.96485,0.82031 -0.88542,0.53386 -1.32813,1.32813 -1.32812,2.38281 -1e-5,0.79428 0.26041,1.41928 0.78125,1.875 0.53384,0.45573 1.26301,0.6836 2.1875,0.6836 1.43228,0 2.63019,-0.42969 3.59375,-1.28907 0.96353,-0.87239 1.60806,-2.09634 1.93359,-3.67187 l 0.15625,-0.80078 -3.35937,0 m 10.91797,-2.63672 -2.44141,12.48047 -6.99219,0 0.58594,-3.24219 c -1.14585,1.30208 -2.35678,2.26562 -3.63281,2.89062 -1.27605,0.61198 -2.66277,0.91797 -4.16016,0.91797 -2.07032,0 -3.71745,-0.53385 -4.94141,-1.60156 -1.21093,-1.08073 -1.8164,-2.53255 -1.8164,-4.35547 0,-2.78645 1.07422,-4.91535 3.22265,-6.38672 2.16146,-1.48436 5.27343,-2.22655 9.33594,-2.22656 l 4.1211,0 0.0781,-0.54687 c 0.0391,-0.18228 0.0586,-0.31249 0.0586,-0.39063 0.013,-0.0781 0.0195,-0.14972 0.0195,-0.21484 -2e-5,-0.85936 -0.41018,-1.50389 -1.23047,-1.9336 -0.80731,-0.44269 -2.01174,-0.66404 -3.61328,-0.66406 -1.44533,2e-5 -2.84507,0.14976 -4.19922,0.44922 -1.35418,0.2995 -2.66277,0.74871 -3.92578,1.34766 l 1.05468,-5.33204 c 1.45833,-0.36456 2.94921,-0.63799 4.47266,-0.82031 1.53645,-0.19529 3.12499,-0.29294 4.76562,-0.29297 3.24217,3e-5 5.65103,0.55992 7.22657,1.67969 1.57549,1.10679 2.36325,2.7995 2.36328,5.07813 -3e-5,0.44272 -0.0326,0.931 -0.0977,1.46484 -0.0521,0.52085 -0.13674,1.08725 -0.2539,1.69922"
         style="line-height:125%;stroke:#000000;font-family:DejaVu Sans;-inkscape-font-specification:DejaVu Sans Bold Oblique"
         id="path3137" />
      <path
         d="m 311.45703,913.0145 c -0.48179,-0.27342 -1.01564,-0.48176 -1.60156,-0.625 -0.58596,-0.14321 -1.21747,-0.21483 -1.89453,-0.21485 -1.78387,2e-5 -3.26825,0.57294 -4.45313,1.71875 -1.17188,1.14585 -1.96615,2.7995 -2.38281,4.96094 l -1.99219,10.07813 -7.01172,0 4.25782,-21.875 7.03125,0 -0.76172,3.75 c 0.92446,-1.38019 2.07681,-2.43488 3.45703,-3.16407 1.39321,-0.74216 2.93618,-1.11325 4.6289,-1.11328 0.24738,3e-5 0.52733,0.0131 0.83985,0.0391 0.31248,0.0261 0.68357,0.0651 1.11328,0.11718 l -1.23047,6.32813"
         style="line-height:125%;stroke:#000000;font-family:DejaVu Sans;-inkscape-font-specification:DejaVu Sans Bold Oblique"
         id="path3139" />
      <path
         d="m 325.65625,911.53012 c -1.80991,2e-5 -3.30079,0.82033 -4.47266,2.46094 -1.17188,1.64064 -1.75782,3.73048 -1.75781,6.26953 -10e-6,1.38022 0.31249,2.4349 0.9375,3.16406 0.63801,0.71615 1.56249,1.07423 2.77344,1.07422 1.80988,10e-6 3.30076,-0.8203 4.47265,-2.46093 1.17186,-1.65364 1.7578,-3.7565 1.75782,-6.3086 -2e-5,-1.36717 -0.31903,-2.40884 -0.95703,-3.125 -0.62502,-0.71613 -1.54299,-1.0742 -2.75391,-1.07422 m 0.56641,-5 c 3.25519,3e-5 5.81378,0.82685 7.67578,2.48047 1.86195,1.65367 2.79294,3.90627 2.79297,6.75781 -3e-5,1.65366 -0.293,3.26173 -0.87891,4.82422 -0.58596,1.54949 -1.43883,2.96876 -2.55859,4.25782 -1.32815,1.53646 -2.89716,2.69531 -4.70704,3.47656 -1.80991,0.78125 -3.82813,1.17187 -6.05468,1.17187 -3.21616,0 -5.75522,-0.82682 -7.61719,-2.48047 -1.84896,-1.65364 -2.77344,-3.90624 -2.77344,-6.75781 0,-1.64061 0.29948,-3.24217 0.89844,-4.80469 0.59896,-1.5755 1.45833,-3.0143 2.57812,-4.3164 1.30208,-1.5104 2.85156,-2.65623 4.64844,-3.4375 1.80989,-0.78123 3.80858,-1.17185 5.9961,-1.17188"
         style="line-height:125%;stroke:#000000;font-family:DejaVu Sans;-inkscape-font-specification:DejaVu Sans Bold Oblique"
         id="path3141" />
      <path
         d="m 356.33984,899.77231 6.95313,0 0.89844,21.19141 9.16015,-21.19141 7.14844,0 0.95703,21.19141 8.84766,-21.19141 7.48047,0 -12.5586,29.16016 -8.51562,0 -0.97657,-22.16797 -9.43359,22.16797 -8.71094,0 -1.25,-29.16016"
         style="line-height:125%;stroke:#000000;font-family:DejaVu Sans;-inkscape-font-specification:DejaVu Sans Bold Oblique"
         id="path3143" />
      <path
         d="m 406.63281,919.08872 c -1.7448,1e-5 -3.06641,0.27344 -3.96484,0.82031 -0.88543,0.53386 -1.32813,1.32813 -1.32813,2.38281 0,0.79428 0.26041,1.41928 0.78125,1.875 0.53385,0.45573 1.26301,0.6836 2.1875,0.6836 1.43228,0 2.6302,-0.42969 3.59375,-1.28907 0.96353,-0.87239 1.60806,-2.09634 1.9336,-3.67187 l 0.15625,-0.80078 -3.35938,0 m 10.91797,-2.63672 -2.44141,12.48047 -6.99218,0 0.58593,-3.24219 c -1.14584,1.30208 -2.35678,2.26562 -3.63281,2.89062 -1.27605,0.61198 -2.66277,0.91797 -4.16015,0.91797 -2.07032,0 -3.71746,-0.53385 -4.94141,-1.60156 -1.21094,-1.08073 -1.81641,-2.53255 -1.81641,-4.35547 0,-2.78645 1.07422,-4.91535 3.22266,-6.38672 2.16145,-1.48436 5.27343,-2.22655 9.33594,-2.22656 l 4.12109,0 0.0781,-0.54687 c 0.039,-0.18228 0.0586,-0.31249 0.0586,-0.39063 0.013,-0.0781 0.0195,-0.14972 0.0195,-0.21484 -2e-5,-0.85936 -0.41017,-1.50389 -1.23047,-1.9336 -0.8073,-0.44269 -2.01173,-0.66404 -3.61328,-0.66406 -1.44532,2e-5 -2.84506,0.14976 -4.19922,0.44922 -1.35417,0.2995 -2.66276,0.74871 -3.92578,1.34766 l 1.05469,-5.33204 c 1.45833,-0.36456 2.94921,-0.63799 4.47265,-0.82031 1.53645,-0.19529 3.12499,-0.29294 4.76563,-0.29297 3.24217,3e-5 5.65102,0.55992 7.22656,1.67969 1.5755,1.10679 2.36326,2.7995 2.36328,5.07813 -2e-5,0.44272 -0.0326,0.931 -0.0976,1.46484 -0.0521,0.52085 -0.13675,1.08725 -0.25391,1.69922"
         style="line-height:125%;stroke:#000000;font-family:DejaVu Sans;-inkscape-font-specification:DejaVu Sans Bold Oblique"
         id="path3145" />
      <path
         d="m 427.62891,898.54184 7.03125,0 -3.20313,16.46485 9.43359,-7.94922 8.24219,0 -12.71484,10.11718 9.23828,11.75782 -7.98828,0 -7.08985,-9.4336 -1.83593,9.4336 -7.01172,0 5.89844,-30.39063"
         style="line-height:125%;stroke:#000000;font-family:DejaVu Sans;-inkscape-font-specification:DejaVu Sans Bold Oblique"
         id="path3147" />
      <path
         d="m 460.30469,919.08872 c -1.74481,1e-5 -3.06642,0.27344 -3.96485,0.82031 -0.88542,0.53386 -1.32813,1.32813 -1.32812,2.38281 -1e-5,0.79428 0.26041,1.41928 0.78125,1.875 0.53384,0.45573 1.26301,0.6836 2.1875,0.6836 1.43228,0 2.63019,-0.42969 3.59375,-1.28907 0.96353,-0.87239 1.60806,-2.09634 1.93359,-3.67187 l 0.15625,-0.80078 -3.35937,0 m 10.91797,-2.63672 -2.44141,12.48047 -6.99219,0 0.58594,-3.24219 c -1.14585,1.30208 -2.35678,2.26562 -3.63281,2.89062 -1.27605,0.61198 -2.66277,0.91797 -4.16016,0.91797 -2.07032,0 -3.71745,-0.53385 -4.94141,-1.60156 -1.21093,-1.08073 -1.8164,-2.53255 -1.8164,-4.35547 0,-2.78645 1.07422,-4.91535 3.22265,-6.38672 2.16146,-1.48436 5.27343,-2.22655 9.33594,-2.22656 l 4.1211,0 0.0781,-0.54687 c 0.0391,-0.18228 0.0586,-0.31249 0.0586,-0.39063 0.013,-0.0781 0.0195,-0.14972 0.0195,-0.21484 -2e-5,-0.85936 -0.41018,-1.50389 -1.23047,-1.9336 -0.80731,-0.44269 -2.01174,-0.66404 -3.61328,-0.66406 -1.44533,2e-5 -2.84507,0.14976 -4.19922,0.44922 -1.35418,0.2995 -2.66277,0.74871 -3.92578,1.34766 l 1.05468,-5.33204 c 1.45833,-0.36456 2.94921,-0.63799 4.47266,-0.82031 1.53645,-0.19529 3.12499,-0.29294 4.76562,-0.29297 3.24217,3e-5 5.65103,0.55992 7.22657,1.67969 1.57549,1.10679 2.36325,2.7995 2.36328,5.07813 -3e-5,0.44272 -0.0326,0.931 -0.0977,1.46484 -0.0521,0.52085 -0.13674,1.08725 -0.2539,1.69922"
         style="line-height:125%;stroke:#000000;font-family:DejaVu Sans;-inkscape-font-specification:DejaVu Sans Bold Oblique"
         id="path3149" />
      <path
         d="m 475.55859,907.05747 6.60157,0 3.00781,15.15625 7.7539,-15.15625 7.48047,0 -13.84765,23.94531 c -1.54949,2.69531 -2.98178,4.45963 -4.29688,5.29297 -1.31511,0.84634 -3.01433,1.26952 -5.09765,1.26953 l -4.23829,0 0.72266,-4.58984 2.20703,0 c 1.14583,-1e-5 2.03125,-0.19532 2.65625,-0.58594 0.63802,-0.37761 1.20442,-1.04818 1.69922,-2.01172 l 0.64453,-1.17188 -5.29297,-22.14843"
         style="line-height:125%;stroke:#000000;font-family:DejaVu Sans;-inkscape-font-specification:DejaVu Sans Bold Oblique"
         id="path3151" />
      <path
         d="m 512.17969,919.08872 c -1.74481,1e-5 -3.06642,0.27344 -3.96485,0.82031 -0.88542,0.53386 -1.32813,1.32813 -1.32812,2.38281 -1e-5,0.79428 0.26041,1.41928 0.78125,1.875 0.53384,0.45573 1.26301,0.6836 2.1875,0.6836 1.43228,0 2.63019,-0.42969 3.59375,-1.28907 0.96353,-0.87239 1.60806,-2.09634 1.93359,-3.67187 l 0.15625,-0.80078 -3.35937,0 m 10.91797,-2.63672 -2.44141,12.48047 -6.99219,0 0.58594,-3.24219 c -1.14585,1.30208 -2.35678,2.26562 -3.63281,2.89062 -1.27605,0.61198 -2.66277,0.91797 -4.16016,0.91797 -2.07032,0 -3.71745,-0.53385 -4.94141,-1.60156 -1.21093,-1.08073 -1.8164,-2.53255 -1.8164,-4.35547 0,-2.78645 1.07422,-4.91535 3.22265,-6.38672 2.16146,-1.48436 5.27343,-2.22655 9.33594,-2.22656 l 4.1211,0 0.0781,-0.54687 c 0.039,-0.18228 0.0586,-0.31249 0.0586,-0.39063 0.013,-0.0781 0.0195,-0.14972 0.0195,-0.21484 -2e-5,-0.85936 -0.41018,-1.50389 -1.23047,-1.9336 -0.80731,-0.44269 -2.01174,-0.66404 -3.61328,-0.66406 -1.44533,2e-5 -2.84507,0.14976 -4.19922,0.44922 -1.35418,0.2995 -2.66277,0.74871 -3.92578,1.34766 l 1.05468,-5.33204 c 1.45833,-0.36456 2.94921,-0.63799 4.47266,-0.82031 1.53645,-0.19529 3.12499,-0.29294 4.76562,-0.29297 3.24217,3e-5 5.65103,0.55992 7.22657,1.67969 1.57549,1.10679 2.36325,2.7995 2.36328,5.07813 -3e-5,0.44272 -0.0326,0.931 -0.0977,1.46484 -0.0521,0.52085 -0.13674,1.08725 -0.2539,1.69922"
         style="line-height:125%;stroke:#000000;font-family:DejaVu Sans;-inkscape-font-specification:DejaVu Sans Bold Oblique"
         id="path3153" />
      <path
         d="m 551.125,910.69028 c 1.0807,-1.34113 2.30466,-2.36977 3.67187,-3.08594 1.38018,-0.71612 2.81247,-1.07419 4.29688,-1.07422 1.95309,3e-5 3.48955,0.54039 4.60937,1.6211 1.13278,1.06772 1.69918,2.53908 1.69922,4.41406 -4e-5,0.39064 -0.0326,0.83986 -0.0976,1.34766 -0.0521,0.4948 -0.13676,1.06121 -0.25391,1.69921 l -2.59766,13.32032 -7.05078,0 2.20703,-11.40625 0.0586,-0.29297 c 0.33851,-1.61457 0.50778,-2.64973 0.50781,-3.10547 -3e-5,-0.71613 -0.20836,-1.28254 -0.625,-1.69922 -0.40368,-0.41665 -0.95706,-0.62498 -1.66016,-0.625 -1.34117,2e-5 -2.48049,0.5534 -3.41796,1.66016 -0.92451,1.09376 -1.58857,2.66277 -1.99219,4.70703 l -2.10938,10.76172 -7.05078,0 2.2461,-11.40625 c 0.19529,-0.97655 0.33201,-1.71223 0.41015,-2.20703 0.0781,-0.5078 0.11717,-0.90494 0.11719,-1.19141 -2e-5,-0.72915 -0.20184,-1.29556 -0.60547,-1.69922 -0.40366,-0.41665 -0.96356,-0.62498 -1.67969,-0.625 -1.28907,2e-5 -2.42188,0.57293 -3.39843,1.71875 -0.96356,1.13283 -1.63413,2.6823 -2.01172,4.64844 l -2.10938,10.76172 -7.01172,0 4.25782,-21.875 7.03125,0 -0.64454,3.20312 c 1.09374,-1.23696 2.25911,-2.16795 3.4961,-2.79297 1.23696,-0.62498 2.52602,-0.93747 3.86719,-0.9375 1.51039,3e-5 2.80596,0.39065 3.88671,1.17188 1.08071,0.76825 1.73175,1.76434 1.95313,2.98828"
         style="line-height:125%;stroke:#000000;font-family:DejaVu Sans;-inkscape-font-specification:DejaVu Sans Bold Oblique"
         id="path3155" />
      <path
         d="m 580.92969,919.08872 c -1.74481,1e-5 -3.06642,0.27344 -3.96485,0.82031 -0.88542,0.53386 -1.32813,1.32813 -1.32812,2.38281 -10e-6,0.79428 0.26041,1.41928 0.78125,1.875 0.53384,0.45573 1.26301,0.6836 2.1875,0.6836 1.43228,0 2.63019,-0.42969 3.59375,-1.28907 0.96353,-0.87239 1.60806,-2.09634 1.93359,-3.67187 l 0.15625,-0.80078 -3.35937,0 m 10.91797,-2.63672 -2.44141,12.48047 -6.99219,0 L 583,925.69028 c -1.14585,1.30208 -2.35678,2.26562 -3.63281,2.89062 -1.27605,0.61198 -2.66277,0.91797 -4.16016,0.91797 -2.07032,0 -3.71745,-0.53385 -4.94141,-1.60156 -1.21093,-1.08073 -1.8164,-2.53255 -1.8164,-4.35547 0,-2.78645 1.07422,-4.91535 3.22265,-6.38672 2.16146,-1.48436 5.27343,-2.22655 9.33594,-2.22656 l 4.1211,0 0.0781,-0.54687 c 0.039,-0.18228 0.0586,-0.31249 0.0586,-0.39063 0.013,-0.0781 0.0195,-0.14972 0.0195,-0.21484 -2e-5,-0.85936 -0.41018,-1.50389 -1.23047,-1.9336 -0.80731,-0.44269 -2.01174,-0.66404 -3.61328,-0.66406 -1.44533,2e-5 -2.84507,0.14976 -4.19922,0.44922 -1.35418,0.2995 -2.66277,0.74871 -3.92578,1.34766 l 1.05468,-5.33204 c 1.45833,-0.36456 2.94921,-0.63799 4.47266,-0.82031 1.53645,-0.19529 3.12499,-0.29294 4.76562,-0.29297 3.24217,3e-5 5.65103,0.55992 7.22657,1.67969 1.57549,1.10679 2.36325,2.7995 2.36328,5.07813 -3e-5,0.44272 -0.0326,0.931 -0.0977,1.46484 -0.0521,0.52085 -0.13674,1.08725 -0.2539,1.69922"
         style="line-height:125%;stroke:#000000;font-family:DejaVu Sans;-inkscape-font-specification:DejaVu Sans Bold Oblique"
         id="path3157" />
    </g>
  </g>
</svg>
